<svg width="21" height="12" viewBox="0 0 21 12" fill="none" xmlns="http://www.w3.org/2000/svg">
<path d="M3.57691 3.00984L0.530762 5.47995L3.2517 8.26194C4.31672 9.35085 5.62604 10.1701 7.07103 10.6518C8.04786 10.9774 9.0708 11.1434 10.1005 11.1434H10.419C12.1524 11.1434 13.8622 10.7423 15.4148 9.97138C16.5056 9.42976 17.5011 8.71435 18.3623 7.85318L20.7355 5.47995L18.682 3.51207C17.6128 2.48736 16.3491 1.68719 14.9656 1.15876C13.7021 0.676173 12.361 0.428772 11.0084 0.428772H10.8578C9.33164 0.428772 7.82053 0.730993 6.41172 1.318C5.39071 1.74342 4.43604 2.31318 3.57691 3.00984Z" stroke="black" stroke-width="0.306132"/>
<path d="M12.47 5.93915C12.47 6.95358 11.6476 7.77594 10.6332 7.77594C9.61875 7.77594 8.79639 6.95358 8.79639 5.93915C8.79639 4.92472 9.61875 4.10236 10.6332 4.10236C11.6476 4.10236 12.47 4.92472 12.47 5.93915ZM9.06363 5.93915C9.06363 6.80599 9.76634 7.5087 10.6332 7.5087C11.5 7.5087 12.2027 6.80599 12.2027 5.93915C12.2027 5.07231 11.5 4.3696 10.6332 4.3696C9.76634 4.3696 9.06363 5.07231 9.06363 5.93915Z" fill="black"/>
<path d="M10.6331 2.57172C9.96706 2.57172 9.316 2.76921 8.76222 3.13923C8.20845 3.50926 7.77683 4.03518 7.52196 4.6505C7.26708 5.26582 7.2004 5.94291 7.33033 6.59613C7.46026 7.24935 7.78098 7.84937 8.25193 8.32032C8.72288 8.79127 9.3229 9.11199 9.97612 9.24192C10.6293 9.37185 11.3064 9.30517 11.9217 9.05029C12.5371 8.79542 13.063 8.3638 13.433 7.81003C13.803 7.25625 14.0005 6.60519 14.0005 5.93917H13.8034C13.8034 6.56621 13.6175 7.17916 13.2691 7.70053C12.9208 8.22189 12.4256 8.62824 11.8463 8.8682C11.267 9.10816 10.6296 9.17094 10.0146 9.04861C9.39958 8.92628 8.83468 8.62433 8.3913 8.18095C7.94792 7.73757 7.64597 7.17267 7.52364 6.55768C7.40131 5.94269 7.46409 5.30523 7.70405 4.72593C7.94401 4.14662 8.35036 3.65148 8.87172 3.30311C9.39309 2.95475 10.006 2.76881 10.6331 2.76881L10.6331 2.57172Z" fill="black"/>
</svg>
