<svg width="25" height="24" viewBox="0 0 25 24" fill="none" xmlns="http://www.w3.org/2000/svg">
<path d="M5.57691 9.00984L2.53076 11.48L5.2517 14.2619C6.31672 15.3509 7.62604 16.1701 9.07103 16.6518C10.0479 16.9774 11.0708 17.1434 12.1005 17.1434H12.419C14.1524 17.1434 15.8622 16.7423 17.4148 15.9714C18.5056 15.4298 19.5011 14.7144 20.3623 13.8532L22.7355 11.48L20.682 9.51207C19.6128 8.48736 18.3491 7.68719 16.9656 7.15876C15.7021 6.67617 14.361 6.42877 13.0084 6.42877H12.8578C11.3316 6.42877 9.82053 6.73099 8.41172 7.318C7.39071 7.74342 6.43604 8.31318 5.57691 9.00984Z" stroke="black" stroke-width="0.306132"/>
<path d="M14.4697 11.9391C14.4697 12.9536 13.6474 13.7759 12.6329 13.7759C11.6185 13.7759 10.7961 12.9536 10.7961 11.9391C10.7961 10.9247 11.6185 10.1024 12.6329 10.1024C13.6474 10.1024 14.4697 10.9247 14.4697 11.9391ZM11.0634 11.9391C11.0634 12.806 11.7661 13.5087 12.6329 13.5087C13.4998 13.5087 14.2025 12.806 14.2025 11.9391C14.2025 11.0723 13.4998 10.3696 12.6329 10.3696C11.7661 10.3696 11.0634 11.0723 11.0634 11.9391Z" fill="black"/>
<path d="M12.6331 8.57172C11.9671 8.57172 11.316 8.76921 10.7622 9.13923C10.2084 9.50926 9.77683 10.0352 9.52196 10.6505C9.26708 11.2658 9.2004 11.9429 9.33033 12.5961C9.46026 13.2494 9.78098 13.8494 10.2519 14.3203C10.7229 14.7913 11.3229 15.112 11.9761 15.2419C12.6293 15.3719 13.3064 15.3052 13.9217 15.0503C14.5371 14.7954 15.063 14.3638 15.433 13.81C15.803 13.2563 16.0005 12.6052 16.0005 11.9392H15.8034C15.8034 12.5662 15.6175 13.1792 15.2691 13.7005C14.9208 14.2219 14.4256 14.6282 13.8463 14.8682C13.267 15.1082 12.6296 15.1709 12.0146 15.0486C11.3996 14.9263 10.8347 14.6243 10.3913 14.181C9.94792 13.7376 9.64597 13.1727 9.52364 12.5577C9.40131 11.9427 9.46409 11.3052 9.70405 10.7259C9.94401 10.1466 10.3504 9.65148 10.8717 9.30311C11.3931 8.95475 12.006 8.76881 12.6331 8.76881L12.6331 8.57172Z" fill="black"/>
<path d="M1 6.12201L24 17.2416" stroke="black" stroke-width="0.612264"/>
</svg>
